<svg width="68" height="68" viewBox="0 0 68 68" fill="none" xmlns="http://www.w3.org/2000/svg">
<path d="M28.3263 61.9756C27.809 61.2538 27.5308 60.3881 27.5308 59.5C27.5308 58.6119 27.809 57.7462 28.3263 57.0244L31.875 52.0625H20.1875C19.0603 52.0625 17.9793 51.6147 17.1823 50.8177C16.3853 50.0207 15.9375 48.9397 15.9375 47.8125V37.1875L8.5 31.875L1.0625 37.1875V58.4375C1.0625 60.6918 1.95803 62.8538 3.55209 64.4479C5.14615 66.042 7.30816 66.9375 9.5625 66.9375H31.875L28.3263 61.9756Z" fill="#2970CC"/>
<path d="M61.9756 39.6738C61.2538 40.191 60.3881 40.4692 59.5 40.4692C58.6119 40.4692 57.7462 40.191 57.0244 39.6738L52.0625 36.125V47.8125C52.0625 48.9397 51.6147 50.0207 50.8177 50.8177C50.0207 51.6147 48.9397 52.0625 47.8125 52.0625H37.1875L31.875 59.5L37.1875 66.9375H58.4375C60.6918 66.9375 62.8538 66.042 64.4479 64.4479C66.042 62.8538 66.9375 60.6918 66.9375 58.4375V36.125L61.9756 39.6738Z" fill="#D9575D"/>
<path d="M6.02437 28.3263C6.74621 27.809 7.61195 27.5308 8.5 27.5308C9.38805 27.5308 10.2538 27.809 10.9756 28.3263L15.9375 31.875V20.1025C15.9375 18.9754 16.3853 17.8944 17.1823 17.0973C17.9793 16.3003 19.0603 15.8525 20.1875 15.8525L30.8125 15.9375L36.125 8.50004L30.8125 1.06254L9.5625 0.977539C7.30816 0.977539 5.14615 1.87307 3.55209 3.46713C1.95803 5.06119 1.0625 7.2232 1.0625 9.47754V31.875L6.02437 28.3263Z" fill="#3E9944"/>
<path d="M39.6738 6.02437C40.191 6.74621 40.4692 7.61195 40.4692 8.5C40.4692 9.38805 40.191 10.2538 39.6738 10.9756L36.125 15.9375H47.8125C48.9397 15.9375 50.0207 16.3853 50.8177 17.1823C51.6147 17.9793 52.0625 19.0603 52.0625 20.1875V30.8125L59.5 36.125L66.9375 30.8125V9.5625C66.9375 7.30816 66.042 5.14615 64.4479 3.55209C62.8538 1.95803 60.6918 1.0625 58.4375 1.0625H36.125L39.6738 6.02437Z" fill="#F2A130"/>
<path d="M10.625 15.8525C13.559 15.8525 15.9375 13.4741 15.9375 10.54C15.9375 7.60603 13.559 5.22754 10.625 5.22754C7.69099 5.22754 5.3125 7.60603 5.3125 10.54C5.3125 13.4741 7.69099 15.8525 10.625 15.8525Z" fill="#29662D"/>
<path d="M59.2877 4.25H53.1571L50.0864 9.5625L53.1571 14.875H59.2877L62.3583 9.5625L59.2877 4.25Z" fill="#99661F"/>
<path d="M53.125 53.04H62.6875V62.6025H53.125V53.04Z" fill="#803337"/>
<path d="M17.085 61.625H6.45996L11.7725 51L17.085 61.625Z" fill="#1A4680"/>
<path d="M44.0938 36.4969L43.4776 36.125C43.2983 36.0348 43.1511 35.8915 43.0561 35.7147C42.9611 35.538 42.9227 35.3362 42.9463 35.1369C43.0597 34.3618 43.0597 33.5744 42.9463 32.7994C42.9227 32.6001 42.9611 32.3983 43.0561 32.2215C43.1511 32.0447 43.2983 31.9015 43.4776 31.8113L44.0938 31.4713C44.3257 31.3315 44.4955 31.1086 44.5685 30.848C44.6416 30.5873 44.6124 30.3086 44.487 30.0687L42.7657 27.2425C42.622 27.0002 42.3879 26.8249 42.1149 26.7552C41.8419 26.6854 41.5524 26.727 41.3101 26.8706L40.6832 27.2106C40.493 27.3109 40.2781 27.3551 40.0637 27.3382C39.8493 27.3213 39.6441 27.2439 39.472 27.115C38.8567 26.6591 38.1854 26.2841 37.4745 25.9994C37.2778 25.926 37.1072 25.7961 36.9843 25.6259C36.8614 25.4557 36.7916 25.2529 36.7838 25.0431V24.4375C36.7838 24.1557 36.6719 23.8855 36.4726 23.6862C36.2734 23.4869 36.0031 23.375 35.7213 23.375H32.2895C32.0077 23.375 31.7374 23.4869 31.5382 23.6862C31.3389 23.8855 31.227 24.1557 31.227 24.4375V25.1175C31.2192 25.3273 31.1495 25.5301 31.0265 25.7003C30.9036 25.8705 30.7331 26.0004 30.5363 26.0738C29.8255 26.3585 29.1541 26.7334 28.5388 27.1894C28.3667 27.3183 28.1615 27.3956 27.9471 27.4126C27.7327 27.4295 27.5179 27.3853 27.3276 27.285L26.7007 26.945C26.4584 26.8013 26.1689 26.7598 25.8959 26.8295C25.6229 26.8993 25.3888 27.0746 25.2451 27.3169L23.5238 30.1431C23.3984 30.383 23.3692 30.6617 23.4423 30.9223C23.5153 31.183 23.6851 31.4059 23.917 31.5456L24.5332 31.8856C24.7125 31.9759 24.8597 32.1191 24.9547 32.2959C25.0498 32.4727 25.0881 32.6744 25.0645 32.8738C24.9511 33.6488 24.9511 34.4362 25.0645 35.2112C25.0881 35.4106 25.0498 35.6123 24.9547 35.7891C24.8597 35.9659 24.7125 36.1091 24.5332 36.1994L23.917 36.5394C23.6851 36.6791 23.5153 36.902 23.4423 37.1627C23.3692 37.4233 23.3984 37.702 23.5238 37.9419L25.2451 40.7681C25.3888 41.0104 25.6229 41.1857 25.8959 41.2555C26.1689 41.3252 26.4584 41.2837 26.7007 41.14L27.3276 40.8C27.5179 40.6997 27.7327 40.6555 27.9471 40.6724C28.1615 40.6894 28.3667 40.7668 28.5388 40.8956C29.157 41.333 29.8282 41.69 30.5363 41.9581C30.7331 42.0315 30.9036 42.1614 31.0265 42.3316C31.1495 42.5018 31.2192 42.7046 31.227 42.9144V43.5625C31.227 43.8443 31.3389 44.1145 31.5382 44.3138C31.7374 44.5131 32.0077 44.625 32.2895 44.625H35.7107C35.9925 44.625 36.2628 44.5131 36.462 44.3138C36.6613 44.1145 36.7732 43.8443 36.7732 43.5625V42.925C36.781 42.7152 36.8507 42.5124 36.9736 42.3422C37.0966 42.172 37.2671 42.0421 37.4638 41.9688C38.172 41.7006 38.8432 41.3436 39.4613 40.9062C39.6335 40.7774 39.8387 40.7 40.0531 40.6831C40.2675 40.6661 40.4823 40.7104 40.6726 40.8106L41.2995 41.1506C41.5418 41.2943 41.8313 41.3358 42.1043 41.2661C42.3773 41.1964 42.6114 41.0211 42.7551 40.7788L44.4763 37.9525C44.547 37.8319 44.5932 37.6985 44.6123 37.5599C44.6313 37.4214 44.6228 37.2805 44.5873 37.1453C44.5517 37.0101 44.4898 36.8832 44.4052 36.7719C44.3205 36.6606 44.2147 36.5672 44.0938 36.4969ZM34.0001 38.25C33.1595 38.25 32.3378 38.0007 31.6389 37.5337C30.94 37.0667 30.3953 36.403 30.0736 35.6264C29.7519 34.8498 29.6678 33.9953 29.8318 33.1709C29.9957 32.3464 30.4005 31.5892 30.9949 30.9948C31.5893 30.4004 32.3465 29.9956 33.171 29.8317C33.9954 29.6677 34.8499 29.7518 35.6265 30.0735C36.4031 30.3952 37.0668 30.9399 37.5338 31.6388C38.0008 32.3377 38.2501 33.1594 38.2501 34C38.2501 35.1272 37.8023 36.2082 37.0053 37.0052C36.2083 37.8022 35.1273 38.25 34.0001 38.25Z" fill="#596C80"/>
</svg>
